<?xml version="1.0" encoding="utf-8"?>
<!-- Generator: Adobe Illustrator 19.2.1, SVG Export Plug-In . SVG Version: 6.00 Build 0)  -->
<svg version="1.1" id="Layer_1" xmlns="http://www.w3.org/2000/svg" xmlns:xlink="http://www.w3.org/1999/xlink" x="0px" y="0px"
	 viewBox="0 0 2576 1388" style="enable-background:new 0 0 2576 1388;" xml:space="preserve">
<style type="text/css">
	.st0{fill:#EAEAEA;}
	.st1{fill:#FFFFFF;}
	.st2{fill:#3FB4FF;}
	.st3{fill:#A6D800;}
	.st4{fill:#FFAE2E;}
	.st5{fill:#C4C4C4;}
</style>
<g id="Layer_2">
	<rect class="st0" width="2576" height="1388"/>
</g>
<g id="Layer_1_1_">
	<rect x="82.7" y="206.7" class="st1" width="450" height="1181.3"/>
	<g>
		<rect x="86.7" y="210.7" class="st2" width="442" height="71.2"/>
		<path class="st1" d="M524.7,214.7v63.2h-434v-63.2H524.7 M532.7,206.7h-450v79.2h450V206.7L532.7,206.7z"/>
	</g>
	<g>
		<rect x="86.7" y="281.1" class="st2" width="442" height="71.2"/>
		<path class="st1" d="M524.7,285.1v63.2h-434v-63.2H524.7 M532.7,277.1h-450v79.2h450V277.1L532.7,277.1z"/>
	</g>
	<g>
		<rect x="86.7" y="351.2" class="st3" width="442" height="151.2"/>
		<path class="st1" d="M524.7,355.2v143.2h-434V355.2H524.7 M532.7,347.2h-450v159.2h450V347.2L532.7,347.2z"/>
	</g>
	<g>
		<rect x="86.7" y="502.7" class="st4" width="442" height="233.5"/>
		<path class="st1" d="M524.7,506.7v225.5h-434V506.7H524.7 M532.7,498.7h-450v241.5h450V498.7L532.7,498.7z"/>
	</g>
	<g>
		<rect x="86.7" y="736" class="st4" width="442" height="233.5"/>
		<path class="st1" d="M524.7,740v225.5h-434V740H524.7 M532.7,732h-450v241.5h450V732L532.7,732z"/>
	</g>
	<g>
		<rect x="86.7" y="969.2" class="st4" width="442" height="233.5"/>
		<path class="st1" d="M524.7,973.2v225.5h-434V973.2H524.7 M532.7,965.2h-450v241.5h450V965.2L532.7,965.2z"/>
	</g>
	<rect x="612.7" y="206.7" class="st1" width="768" height="1181.3"/>
	<g>
		<rect x="616.7" y="210.7" class="st2" width="760" height="71.2"/>
		<path class="st1" d="M1372.7,214.7v63.2h-752v-63.2H1372.7 M1380.7,206.7h-768v79.2h768V206.7L1380.7,206.7z"/>
	</g>
	<g>
		<rect x="616.7" y="281.1" class="st2" width="760" height="71.2"/>
		<path class="st1" d="M1372.7,285.1v63.2h-752v-63.2H1372.7 M1380.7,277.1h-768v79.2h768V277.1L1380.7,277.1z"/>
	</g>
	<g>
		<rect x="616.7" y="351.2" class="st3" width="760" height="237.5"/>
		<path class="st1" d="M1372.7,355.2v229.5h-752V355.2H1372.7 M1380.7,347.2h-768v245.5h768V347.2L1380.7,347.2z"/>
	</g>
	<g>
		<rect x="616.7" y="588.7" class="st4" width="760" height="148.1"/>
		<path class="st1" d="M1372.7,592.7v140.1h-752V592.7H1372.7 M1380.7,584.7h-768v156.1h768V584.7L1380.7,584.7z"/>
	</g>
	<g>
		<rect x="616.7" y="737.5" class="st4" width="760" height="148.1"/>
		<path class="st1" d="M1372.7,741.5v140.1h-752V741.5H1372.7 M1380.7,733.5h-768v156.1h768V733.5L1380.7,733.5z"/>
	</g>
	<g>
		<rect x="616.7" y="886.3" class="st4" width="760" height="148.1"/>
		<path class="st1" d="M1372.7,890.3v140.1h-752V890.3H1372.7 M1380.7,882.3h-768v156.1h768V882.3L1380.7,882.3z"/>
	</g>
	<g>
		<rect x="616.7" y="1035.1" class="st5" width="379.9" height="84.6"/>
		<path class="st1" d="M992.5,1039.1v76.6H620.7v-76.6H992.5 M1000.5,1031.1H612.7v92.6h387.9L1000.5,1031.1L1000.5,1031.1z"/>
	</g>
	<g>
		<rect x="996.8" y="1035.1" class="st5" width="379.9" height="84.6"/>
		<path class="st1" d="M1372.7,1039.1v76.6h-371.9v-76.6H1372.7 M1380.7,1031.1H992.8v92.6h387.9V1031.1L1380.7,1031.1z"/>
	</g>
	<g>
		<rect x="616.7" y="1118.1" class="st5" width="379.9" height="84.6"/>
		<path class="st1" d="M992.5,1122.1v76.6H620.7v-76.6H992.5 M1000.5,1114.1H612.7v92.6h387.9L1000.5,1114.1L1000.5,1114.1z"/>
	</g>
	<g>
		<rect x="996.8" y="1118.1" class="st5" width="379.9" height="84.6"/>
		<path class="st1" d="M1372.7,1122.1v76.6h-371.9v-76.6H1372.7 M1380.7,1114.1H992.8v92.6h387.9V1114.1L1380.7,1114.1z"/>
	</g>
	<rect x="1466" y="206.7" class="st1" width="1024" height="1181.3"/>
	<g>
		<rect x="1502.2" y="210.7" class="st2" width="479.2" height="71.2"/>
		<path class="st1" d="M1977.4,214.7v63.2h-471.2v-63.2H1977.4 M1985.4,206.7h-487.2v79.2h487.2L1985.4,206.7L1985.4,206.7z"/>
	</g>
	<g>
		<rect x="1976.5" y="210.7" class="st2" width="477.9" height="71.2"/>
		<path class="st1" d="M2450.4,214.7v63.2h-469.9v-63.2H2450.4 M2458.4,206.7h-485.9v79.2h485.9V206.7L2458.4,206.7z"/>
	</g>
	<g>
		<rect x="1502" y="281.1" class="st3" width="952" height="307.6"/>
		<path class="st1" d="M2450,285.1v299.6h-944V285.1H2450 M2458,277.1h-960v315.6h960V277.1L2458,277.1z"/>
	</g>
	<g>
		<rect x="1502" y="589.4" class="st4" width="319.3" height="233.9"/>
		<path class="st1" d="M1817.3,593.4v225.9H1506V593.4H1817.3 M1825.3,585.4H1498v241.9h327.3V585.4L1825.3,585.4z"/>
	</g>
	<g>
		<rect x="1817.4" y="589.4" class="st4" width="319.3" height="233.9"/>
		<path class="st1" d="M2132.7,593.4v225.9h-311.3V593.4H2132.7 M2140.7,585.4h-327.3v241.9h327.3V585.4L2140.7,585.4z"/>
	</g>
	<g>
		<rect x="2134.7" y="589.4" class="st4" width="319.3" height="233.9"/>
		<path class="st1" d="M2450,593.4v225.9h-311.3V593.4H2450 M2458,585.4h-327.3v241.9H2458V585.4L2458,585.4z"/>
	</g>
	<g>
		<rect x="1502" y="823.3" class="st5" width="237.9" height="209.6"/>
		<g>
			<path class="st1" d="M1735.9,827.3v201.6H1506V827.3H1735.9 M1743.9,819.3H1498v217.6h245.9V819.3L1743.9,819.3z"/>
		</g>
	</g>
	<g>
		<rect x="1739.1" y="823.3" class="st5" width="237.9" height="209.6"/>
		<g>
			<path class="st1" d="M1973,827.3v201.6h-229.9V827.3H1973 M1981,819.3h-245.9v217.6H1981V819.3L1981,819.3z"/>
		</g>
	</g>
	<g>
		<rect x="1973.6" y="823.3" class="st5" width="241.9" height="209.6"/>
		<g>
			<path class="st1" d="M2211.4,827.3v201.6h-233.9V827.3H2211.4 M2219.4,819.3h-249.9v217.6h249.9V819.3L2219.4,819.3z"/>
		</g>
	</g>
	<g>
		<rect x="2212.4" y="823.3" class="st5" width="241.6" height="209.6"/>
		<g>
			<path class="st1" d="M2450,827.3v201.6h-233.6V827.3H2450 M2458,819.3h-249.6v217.6H2458V819.3L2458,819.3z"/>
		</g>
	</g>
</g>
<g>
	<path d="M238.8,145.8c0-2.5-0.1-4.6-0.2-6.6h3.9l0.2,3.9h0.1c1.4-2.3,3.6-4.5,7.6-4.5c3.3,0,5.8,2,6.9,4.9h0.1
		c0.8-1.4,1.7-2.4,2.7-3.1c1.5-1.1,3.1-1.7,5.4-1.7c3.2,0,8,2.1,8,10.5v14.3H269v-13.7c0-4.7-1.7-7.5-5.2-7.5c-2.5,0-4.5,1.9-5.2,4
		c-0.2,0.6-0.4,1.4-0.4,2.2v15h-4.3V149c0-3.9-1.7-6.7-5.1-6.7c-2.8,0-4.8,2.2-5.5,4.4c-0.2,0.6-0.3,1.4-0.3,2.1v14.6h-4.3V145.8z"
		/>
	<path d="M302.4,151.2c0,9-6.2,12.9-12.1,12.9c-6.6,0-11.6-4.8-11.6-12.5c0-8.1,5.3-12.9,12-12.9
		C297.7,138.7,302.4,143.8,302.4,151.2z M283.2,151.4c0,5.3,3,9.3,7.4,9.3c4.2,0,7.4-4,7.4-9.4c0-4.1-2.1-9.3-7.3-9.3
		S283.2,146.8,283.2,151.4z"/>
	<path d="M307.7,163.5c0.1-1.6,0.2-4.1,0.2-6.3V128h4.4v15.2h0.1c1.5-2.7,4.4-4.5,8.3-4.5c6,0,10.3,5,10.2,12.4
		c0,8.7-5.5,13-10.9,13c-3.5,0-6.3-1.3-8.1-4.5h-0.1l-0.2,4H307.7z M312.3,153.8c0,0.6,0.1,1.1,0.2,1.6c0.9,3.1,3.4,5.2,6.6,5.2
		c4.6,0,7.4-3.8,7.4-9.3c0-4.9-2.5-9-7.2-9c-3,0-5.8,2.1-6.7,5.4c-0.1,0.5-0.2,1.1-0.2,1.8V153.8z"/>
	<path d="M341.3,132.5c0.1,1.5-1,2.7-2.8,2.7c-1.6,0-2.7-1.2-2.7-2.7c0-1.5,1.2-2.8,2.8-2.8C340.2,129.7,341.3,130.9,341.3,132.5z
		 M336.4,163.5v-24.2h4.4v24.2H336.4z"/>
	<path d="M348.1,128h4.4v35.5h-4.4V128z"/>
	<path d="M362.3,152.2c0.1,6,3.9,8.4,8.3,8.4c3.2,0,5.1-0.5,6.7-1.2l0.8,3.2c-1.6,0.7-4.2,1.5-8.1,1.5c-7.5,0-11.9-4.9-11.9-12.2
		s4.3-13.1,11.4-13.1c7.9,0,10,7,10,11.4c0,0.9-0.1,1.6-0.1,2H362.3z M375.2,149c0.1-2.8-1.1-7.2-6.1-7.2c-4.5,0-6.4,4.1-6.8,7.2
		H375.2z"/>
</g>
<g>
	<path d="M941.4,132.3v7h6.3v3.4h-6.3v13.1c0,3,0.8,4.7,3.3,4.7c1.2,0,2-0.1,2.5-0.3l0.2,3.3c-0.8,0.4-2.2,0.6-3.9,0.6
		c-2,0-3.7-0.6-4.8-1.9c-1.2-1.3-1.7-3.5-1.7-6.3v-13.2h-3.8v-3.4h3.8v-5.8L941.4,132.3z"/>
	<path d="M966.1,163.5l-0.4-3.1h-0.2c-1.3,1.9-4,3.6-7.4,3.6c-4.9,0-7.4-3.5-7.4-7c0-5.9,5.2-9.1,14.6-9v-0.5c0-2-0.5-5.6-5.5-5.6
		c-2.2,0-4.6,0.7-6.3,1.8l-1-2.9c2-1.3,4.9-2.1,8-2.1c7.4,0,9.2,5.1,9.2,9.9v9.1c0,2.1,0.1,4.2,0.4,5.8H966.1z M965.4,151.1
		c-4.8-0.1-10.3,0.8-10.3,5.5c0,2.9,1.9,4.2,4.2,4.2c3.2,0,5.2-2,5.9-4.1c0.1-0.4,0.2-1,0.2-1.4V151.1z"/>
	<path d="M976.6,163.5c0.1-1.6,0.2-4.1,0.2-6.3V128h4.4v15.2h0.1c1.5-2.7,4.4-4.5,8.3-4.5c6,0,10.2,5,10.2,12.4
		c0,8.7-5.5,13-10.9,13c-3.5,0-6.3-1.3-8.1-4.5h-0.1l-0.2,4H976.6z M981.1,153.8c0,0.6,0.1,1.1,0.2,1.6c0.8,3.1,3.4,5.2,6.6,5.2
		c4.6,0,7.4-3.8,7.4-9.3c0-4.9-2.5-9-7.2-9c-3,0-5.8,2.1-6.7,5.4c-0.1,0.5-0.2,1.1-0.2,1.8V153.8z"/>
	<path d="M1005.2,128h4.4v35.5h-4.4V128z"/>
	<path d="M1019.5,152.2c0.1,6,3.9,8.4,8.3,8.4c3.2,0,5-0.5,6.7-1.2l0.8,3.2c-1.5,0.7-4.2,1.5-8.1,1.5c-7.5,0-11.9-4.9-11.9-12.2
		s4.3-13.1,11.4-13.1c7.9,0,10,7,10,11.4c0,0.9-0.1,1.6-0.2,2H1019.5z M1032.4,149c0.1-2.8-1.1-7.2-6.1-7.2c-4.5,0-6.4,4.1-6.8,7.2
		H1032.4z"/>
	<path d="M1047.4,132.3v7h6.3v3.4h-6.3v13.1c0,3,0.8,4.7,3.3,4.7c1.2,0,2-0.1,2.5-0.3l0.2,3.3c-0.8,0.4-2.2,0.6-3.9,0.6
		c-2,0-3.7-0.6-4.8-1.9c-1.2-1.3-1.7-3.5-1.7-6.3v-13.2h-3.8v-3.4h3.8v-5.8L1047.4,132.3z"/>
</g>
<g>
	<path d="M1917.4,128v29.3c0,2.2,0,4.6,0.2,6.3h-4l-0.2-4.2h-0.1c-1.4,2.7-4.3,4.8-8.3,4.8c-5.9,0-10.4-5-10.4-12.3
		c0-8.1,5-13,10.9-13c3.7,0,6.2,1.8,7.3,3.7h0.1V128H1917.4z M1913,149.1c0-0.5,0-1.3-0.2-1.9c-0.6-2.8-3-5.1-6.4-5.1
		c-4.5,0-7.2,4-7.2,9.4c0,4.9,2.4,9,7.2,9c3,0,5.7-2,6.5-5.3c0.2-0.6,0.2-1.2,0.2-1.9V149.1z"/>
	<path d="M1927.2,152.2c0.1,6,3.9,8.4,8.3,8.4c3.2,0,5.1-0.5,6.7-1.2l0.8,3.2c-1.6,0.7-4.2,1.5-8.1,1.5c-7.5,0-11.9-4.9-11.9-12.2
		s4.3-13.1,11.4-13.1c7.9,0,10,7,10,11.4c0,0.9-0.1,1.6-0.1,2H1927.2z M1940.1,149c0-2.8-1.2-7.2-6.1-7.2c-4.5,0-6.4,4.1-6.8,7.2
		H1940.1z"/>
	<path d="M1949.2,159c1.3,0.9,3.6,1.8,5.8,1.8c3.2,0,4.7-1.6,4.7-3.6c0-2.1-1.2-3.2-4.5-4.5c-4.4-1.5-6.4-4-6.4-6.9
		c0-3.9,3.1-7.1,8.3-7.1c2.5,0,4.6,0.7,6,1.5l-1.1,3.2c-1-0.6-2.7-1.4-5-1.4c-2.6,0-4,1.5-4,3.3c0,2,1.4,2.9,4.6,4.1
		c4.2,1.6,6.4,3.7,6.4,7.3c0,4.3-3.3,7.3-9.1,7.3c-2.6,0-5.1-0.6-6.8-1.6L1949.2,159z"/>
	<path d="M1973.9,150.4h0.1c0.6-0.9,1.5-1.9,2.1-2.8l7.1-8.4h5.3l-9.4,10l10.7,14.3h-5.4l-8.4-11.6l-2.2,2.5v9.1h-4.3V128h4.3V150.4
		z"/>
	<path d="M1998.3,132.3v7h6.3v3.4h-6.3v13.1c0,3,0.8,4.7,3.3,4.7c1.2,0,2-0.1,2.5-0.3l0.2,3.3c-0.8,0.4-2.2,0.6-3.9,0.6
		c-2,0-3.7-0.6-4.8-1.9c-1.2-1.3-1.7-3.5-1.7-6.3v-13.2h-3.8v-3.4h3.8v-5.8L1998.3,132.3z"/>
	<path d="M2031.2,151.2c0,9-6.2,12.9-12.1,12.9c-6.6,0-11.6-4.8-11.6-12.5c0-8.1,5.3-12.9,12-12.9
		C2026.5,138.7,2031.2,143.8,2031.2,151.2z M2012,151.4c0,5.3,3,9.3,7.4,9.3c4.2,0,7.4-4,7.4-9.4c0-4.1-2.1-9.3-7.3-9.3
		S2012,146.8,2012,151.4z"/>
	<path d="M2036.7,147.2c0-3.1-0.1-5.6-0.2-7.9h4l0.2,4.2h0.1c1.8-3,4.7-4.7,8.6-4.7c5.9,0,10.3,5,10.3,12.3c0,8.7-5.3,13-11,13
		c-3.2,0-6-1.4-7.5-3.8h-0.1v13.2h-4.3V147.2z M2041.1,153.6c0,0.6,0.1,1.2,0.2,1.8c0.8,3,3.5,5.1,6.6,5.1c4.7,0,7.4-3.8,7.4-9.4
		c0-4.9-2.6-9-7.2-9c-3,0-5.8,2.2-6.7,5.5c-0.1,0.5-0.3,1.2-0.3,1.8V153.6z"/>
</g>
</svg>
